<mxfile host="app.diagrams.net" agent="Mozilla/5.0 (Macintosh; Intel Mac OS X 10_15_7) AppleWebKit/537.36 (KHTML, like Gecko) Chrome/131.0.0.0 Safari/537.36" version="26.0.6">
  <diagram id="C5RBs43oDa-KdzZeNtuy" name="Aws Nextjs Nginx Diagram">
    <mxGraphModel dx="954" dy="515" grid="1" gridSize="10" guides="1" tooltips="1" connect="1" arrows="1" fold="1" page="1" pageScale="1" pageWidth="827" pageHeight="1169" math="0" shadow="0">
      <root>
        <mxCell id="0" />
        <mxCell id="1" parent="0" />
        <mxCell id="kHdmsVk6Ezz-y7pQCIES-1" value="Route 53" style="rounded=1;whiteSpace=wrap;html=1;align=center;fillColor=#f7df1e;strokeColor=#d6b200;" vertex="1" parent="1">
          <mxGeometry x="250" y="50" width="100" height="50" as="geometry" />
        </mxCell>
        <mxCell id="kHdmsVk6Ezz-y7pQCIES-2" value="CloudFront" style="rounded=1;whiteSpace=wrap;html=1;align=center;fillColor=#2e73b8;strokeColor=#1c4c6b;" vertex="1" parent="1">
          <mxGeometry x="250" y="150" width="100" height="50" as="geometry" />
        </mxCell>
        <mxCell id="kHdmsVk6Ezz-y7pQCIES-3" value="Application Load Balancer" style="rounded=1;whiteSpace=wrap;html=1;align=center;fillColor=#ff9900;strokeColor=#cc6600;" vertex="1" parent="1">
          <mxGeometry x="250" y="250" width="150" height="50" as="geometry" />
        </mxCell>
        <mxCell id="kHdmsVk6Ezz-y7pQCIES-4" value="ECS - Next.js" style="rounded=1;whiteSpace=wrap;html=1;align=center;fillColor=#232f3e;strokeColor=#1b1f23;" vertex="1" parent="1">
          <mxGeometry x="100" y="350" width="150" height="50" as="geometry" />
        </mxCell>
        <mxCell id="kHdmsVk6Ezz-y7pQCIES-5" value="S3 - Existing Website" style="rounded=1;whiteSpace=wrap;html=1;align=center;fillColor=#5692d8;strokeColor=#3b7cbf;" vertex="1" parent="1">
          <mxGeometry x="400" y="350" width="150" height="50" as="geometry" />
        </mxCell>
        <mxCell id="kHdmsVk6Ezz-y7pQCIES-6" style="edgeStyle=orthogonalEdgeStyle;rounded=1;orthogonalLoop=1;html=1;strokeColor=#888888;" edge="1" parent="1" source="kHdmsVk6Ezz-y7pQCIES-1" target="kHdmsVk6Ezz-y7pQCIES-2">
          <mxGeometry relative="1" as="geometry" />
        </mxCell>
        <mxCell id="kHdmsVk6Ezz-y7pQCIES-7" style="edgeStyle=orthogonalEdgeStyle;rounded=1;orthogonalLoop=1;html=1;strokeColor=#888888;" edge="1" parent="1" source="kHdmsVk6Ezz-y7pQCIES-2" target="kHdmsVk6Ezz-y7pQCIES-3">
          <mxGeometry relative="1" as="geometry" />
        </mxCell>
        <mxCell id="kHdmsVk6Ezz-y7pQCIES-8" style="edgeStyle=orthogonalEdgeStyle;rounded=1;orthogonalLoop=1;html=1;strokeColor=#888888;" edge="1" parent="1" source="kHdmsVk6Ezz-y7pQCIES-3" target="kHdmsVk6Ezz-y7pQCIES-4">
          <mxGeometry relative="1" as="geometry">
            <mxPoint x="175" y="300" as="targetPoint" />
          </mxGeometry>
        </mxCell>
        <mxCell id="kHdmsVk6Ezz-y7pQCIES-9" style="edgeStyle=orthogonalEdgeStyle;rounded=1;orthogonalLoop=1;html=1;strokeColor=#888888;" edge="1" parent="1" source="kHdmsVk6Ezz-y7pQCIES-3" target="kHdmsVk6Ezz-y7pQCIES-5">
          <mxGeometry relative="1" as="geometry">
            <mxPoint x="475" y="300" as="targetPoint" />
          </mxGeometry>
        </mxCell>
      </root>
    </mxGraphModel>
  </diagram>
</mxfile>
